<svg width="20" height="20" viewBox="0 0 20 20" fill="none" xmlns="http://www.w3.org/2000/svg">
<path d="M18.9102 14.7666L16.9561 16.7207L18.9102 18.6748L18.9961 18.7598H17.0205L14.9824 16.7217L17.0205 14.6816H18.9961L18.9102 14.7666ZM10.2285 3.70703C14.0872 3.85449 17.3549 6.2666 18.6543 9.60645L18.6807 9.6748H17.2158L17.2031 9.64648C15.9834 7.02617 13.2996 5.16931 10.1592 5.05566L9.85352 5.0498C5.4109 5.04993 1.80006 8.53294 1.7998 12.8096L1.81348 13.2539C1.87443 14.2775 2.14613 15.2819 2.60938 16.1992H12.5498V17.5488H2.20508C1.9926 17.5488 1.79461 17.4483 1.66797 17.2832L1.61816 17.208C0.902824 15.954 0.50227 14.5386 0.455078 13.0977L0.450195 12.8096C0.450454 7.78576 4.67018 3.70032 9.85352 3.7002L10.2285 3.70703ZM18.9092 10.9102L14.0449 15.7744L14.0098 15.7393L13.0898 14.8262L13.0537 14.791L13.0898 14.7559L17.0215 10.8252H18.9951L18.9092 10.9102ZM12.4795 8.3457C12.7586 8.20416 13.1103 8.27219 13.3125 8.52832L13.3867 8.64355C13.5085 8.88436 13.4739 9.17695 13.3008 9.38281L13.2031 9.47754L10.5879 11.5469C10.7278 11.8369 10.8154 12.1561 10.8154 12.498L10.8037 12.7285C10.6929 13.7886 9.82632 14.6324 8.74219 14.7402L8.50684 14.752C7.31518 14.7516 6.33043 13.864 6.21191 12.7285L6.2002 12.498C6.2004 11.2559 7.2358 10.2464 8.50684 10.2461L8.66895 10.252C9.0299 10.2776 9.36515 10.3883 9.66113 10.5576L12.3652 8.41895L12.4795 8.3457ZM8.50684 11.5957C8.01025 11.596 7.60366 11.9532 7.55469 12.4062L7.5498 12.498C7.5498 12.9939 7.97715 13.402 8.50684 13.4023C9.00497 13.4023 9.41208 13.0434 9.46094 12.5898L9.46582 12.498C9.46563 12.0334 9.09003 11.6472 8.60547 11.6006L8.50684 11.5957Z" fill="#CED0D6"/>
</svg>
