<svg width="20" height="20" viewBox="0 0 20 20" fill="none" xmlns="http://www.w3.org/2000/svg">
<path d="M16.8848 15.3887H3.11583C2.62783 14.3587 2.37183 13.2197 2.37183 12.0697C2.37183 7.82767 5.79383 4.37667 9.99983 4.37667C14.2068 4.37667 17.6288 7.82767 17.6288 12.0697C17.6288 13.2187 17.3718 14.3577 16.8848 15.3887ZM9.99983 2.87667C4.96683 2.87667 0.871826 7.00067 0.871826 12.0697C0.871826 13.6177 1.26183 15.1497 1.99883 16.4987C2.13083 16.7397 2.38383 16.8887 2.65683 16.8887H17.3438C17.6178 16.8887 17.8698 16.7397 18.0018 16.4977C18.7388 15.1487 19.1288 13.6177 19.1288 12.0697C19.1288 7.00067 15.0338 2.87667 9.99983 2.87667Z" fill="#CED0D6"/>
<path d="M9.94493 12.5879C9.49393 12.5879 9.12793 12.2159 9.12793 11.7579C9.12793 11.3009 9.49393 10.9289 9.94493 10.9289C10.3959 10.9289 10.7629 11.3009 10.7629 11.7579C10.7629 12.2159 10.3959 12.5879 9.94493 12.5879ZM13.5729 7.62589L11.0399 9.71789C10.7119 9.53989 10.3429 9.42889 9.94493 9.42889C8.66693 9.42889 7.62793 10.4739 7.62793 11.7579C7.62793 13.0429 8.66693 14.0879 9.94493 14.0879C11.2229 14.0879 12.2629 13.0429 12.2629 11.7579C12.2629 11.4229 12.1889 11.1069 12.0619 10.8189L14.5279 8.78189C14.8479 8.51889 14.8929 8.04589 14.6289 7.72689C14.3629 7.40589 13.8909 7.36189 13.5729 7.62589Z" fill="#CED0D6"/>
</svg>
