<svg width="16" height="16" viewBox="0 0 16 16" fill="none" xmlns="http://www.w3.org/2000/svg">
<path d="M15.1348 11.8203L13.5781 13.376L15.1348 14.9326L15.2207 15.0176H13.6123L11.9717 13.377L13.6123 11.7354H15.2207L15.1348 11.8203ZM15.1348 8.73535L11.2363 12.6338L11.2012 12.5986L10.4648 11.8682L10.4287 11.833L10.4648 11.7979L13.6133 8.65039H15.2207L15.1348 8.73535ZM7.09961 5.0498C7.26093 5.0498 7.39895 5.10399 7.49707 5.20215C7.5707 5.2758 7.61984 5.37178 7.63965 5.4834L7.64941 5.59961C7.64941 5.76097 7.59521 5.89893 7.49707 5.99707C7.39893 6.09521 7.26097 6.14941 7.09961 6.14941H4.40039C3.81357 6.14941 3.32373 6.34512 2.83105 6.73926C2.49308 7.07901 2.30245 7.49316 2.25977 8.05078L2.25 8.2998C2.25 8.64462 2.29944 8.91315 2.39648 9.15625C2.49378 9.39987 2.64027 9.62089 2.83887 9.86914L2.91211 9.95508C3.28507 10.3629 3.74851 10.4502 4.40039 10.4502H7.09961C7.26097 10.4502 7.39893 10.5044 7.49707 10.6025C7.57072 10.6762 7.61988 10.7721 7.63965 10.8838L7.64941 11C7.64941 11.1614 7.59521 11.2993 7.49707 11.3975C7.39893 11.4956 7.26097 11.5498 7.09961 11.5498H4.40039C3.54578 11.5498 2.77652 11.2827 2.18066 10.7461L2.06445 10.6348C1.53042 10.1006 1.23053 9.41129 1.16406 8.63672L1.15039 8.2998C1.15043 7.38636 1.45528 6.6752 2.06152 5.96777L2.06445 5.96484L2.18066 5.85352C2.77652 5.31693 3.54578 5.0498 4.40039 5.0498H7.09961ZM10.5352 10.5352L9.52051 11.5498H8.90039C8.73903 11.5498 8.60107 11.4956 8.50293 11.3975C8.40479 11.2993 8.35059 11.1614 8.35059 11C8.35059 10.8386 8.40479 10.7007 8.50293 10.6025C8.60107 10.5044 8.73903 10.4502 8.90039 10.4502H10.6211L10.5352 10.5352ZM10.7002 7.75C10.8615 7.75004 10.9995 7.80421 11.0977 7.90234C11.1713 7.97599 11.2204 8.07195 11.2402 8.18359L11.25 8.2998C11.25 8.46115 11.1958 8.59913 11.0977 8.69727C11.024 8.77091 10.9281 8.82006 10.8164 8.83984L10.7002 8.84961H5.2998C5.13852 8.84955 5.00049 8.79539 4.90234 8.69727C4.82869 8.62362 4.77954 8.52767 4.75977 8.41602L4.75 8.2998C4.75003 8.1385 4.8042 8.00048 4.90234 7.90234C5.00049 7.80421 5.13853 7.75006 5.2998 7.75H10.7002ZM11.5996 5.0498C12.5097 5.0498 13.3224 5.35334 13.9326 5.96191L14.126 6.13965C14.5504 6.57263 14.7875 7.12359 14.8389 7.74121L14.8438 7.79492H13.7432L13.7393 7.75C13.7214 7.56203 13.6782 7.38928 13.5908 7.22461C13.5253 7.10128 13.434 6.98088 13.3076 6.86035L13.1689 6.73926C12.6763 6.34512 12.1864 6.14941 11.5996 6.14941H8.90039C8.73903 6.14941 8.60107 6.09521 8.50293 5.99707C8.42928 5.92342 8.38012 5.8275 8.36035 5.71582L8.35059 5.59961C8.35067 5.43836 8.40482 5.3003 8.50293 5.20215C8.60105 5.10399 8.73907 5.0498 8.90039 5.0498H11.5996Z" fill="#CED0D6"/>
</svg>
