<svg width="20" height="20" viewBox="0 0 20 20" fill="none" xmlns="http://www.w3.org/2000/svg">
<path d="M8.87588 14.5752H5.38788C4.19488 14.5752 3.21188 14.1722 2.38288 13.3432C1.55388 12.5142 1.15088 11.5312 1.15088 10.3382C1.15088 9.1442 1.55388 8.1612 2.38288 7.3322C3.21188 6.50319 4.19488 6.10019 5.38788 6.10019H8.87588C9.28988 6.10019 9.62588 6.4362 9.62588 6.8502C9.62588 7.2642 9.28988 7.6002 8.87588 7.6002H5.38788C4.59188 7.6002 3.99188 7.8452 3.44388 8.3932C2.89588 8.9412 2.65088 9.5412 2.65088 10.3382C2.65088 11.1352 2.89588 11.7342 3.44388 12.2822C3.99188 12.8312 4.59188 13.0752 5.38788 13.0752H8.87588C9.28988 13.0752 9.62588 13.4112 9.62588 13.8252C9.62588 14.2392 9.28988 14.5752 8.87588 14.5752Z" fill="#CED0D6"/>
<path d="M14.6122 14.5752H11.1252C10.7112 14.5752 10.3752 14.2392 10.3752 13.8252C10.3752 13.4112 10.7112 13.0752 11.1252 13.0752H14.6122C15.4082 13.0752 16.0082 12.8302 16.5572 12.2822C17.1052 11.7342 17.3492 11.1352 17.3492 10.3382C17.3492 9.5402 17.1052 8.9412 16.5572 8.3932C16.0082 7.8452 15.4092 7.6002 14.6122 7.6002H11.1252C10.7112 7.6002 10.3752 7.2642 10.3752 6.8502C10.3752 6.4362 10.7112 6.10019 11.1252 6.10019H14.6122C15.8042 6.10019 16.7882 6.50319 17.6182 7.3322C18.4472 8.1612 18.8492 9.1442 18.8492 10.3382C18.8492 11.5312 18.4472 12.5142 17.6182 13.3432C16.7882 14.1722 15.8042 14.5752 14.6122 14.5752Z" fill="#CED0D6"/>
<path d="M13.4882 11.0879H6.51318C6.09918 11.0879 5.76318 10.7519 5.76318 10.3379C5.76318 9.92289 6.09918 9.58789 6.51318 9.58789H13.4882C13.9022 9.58789 14.2382 9.92289 14.2382 10.3379C14.2382 10.7519 13.9022 11.0879 13.4882 11.0879Z" fill="#CED0D6"/>
</svg>
