<?xml version="1.0" encoding="UTF-8"?><svg id="Layer_1" xmlns="http://www.w3.org/2000/svg" viewBox="0 0 20 20"><defs><style>.cls-1{fill:none;}.cls-2{fill:#ced0d6;}</style></defs><rect class="cls-1" y="0" width="20" height="20"/><polygon class="cls-2" points="13.07 14.86 13.97 15.86 18.97 10.86 17.07 10.86 13.07 14.86"/><polygon class="cls-2" points="17.07 14.86 15.07 16.86 17.07 18.96 18.97 18.96 16.87 16.86 18.97 14.86 17.07 14.86"/><path class="cls-2" d="M14.83,6.13c.29.22.65.35,1.02.35.04,0,.08,0,.12,0,.48-.03.92-.27,1.21-.65l1.44-1.86c.53-.69.46-1.66-.17-2.26l-.26-.25c-.6-.57-1.52-.63-2.18-.13l-1.9,1.42c-.4.3-.64.75-.67,1.25-.03.42.12.83.38,1.15l-2.42,2.38-2.43-2.47v-2.08c0-.3-.1-.5-.3-.69l-.99-.99c-.2-.2-.5-.4-.89-.4h-2.67c-.5,0-.99.4-.99.99v.3h-.3c-.5,0-.99.4-.99.99v2.67c0,.3.1.69.4.89l1.09.99c.2.2.4.3.69.3h2.08l2.43,2.33-1.14,1.12c-.3-.23-.67-.37-1.06-.37-.53-.02-.95.18-1.3.53l-3.69,3.73c-.68.69-.7,1.78-.03,2.49l.66.7c.33.36.79.56,1.28.56.01,0,.02,0,.03,0,.48,0,.92-.18,1.26-.52l3.72-3.7c.68-.67.71-1.72.1-2.44l6.46-6.36ZM14.96,3.87l1.89-1.42c.05-.04.12-.06.18-.06.08,0,.15.03.21.08l.26.24c.11.11.13.28.03.4l-1.44,1.86c-.07.09-.17.11-.22.12-.05,0-.15,0-.23-.08l-.71-.68c-.09-.08-.09-.18-.09-.24,0-.05.02-.15.12-.22ZM7.1,6.86c-.2-.2-.4-.3-.69-.3h-2.08l-.89-.79v-2.18h.2l1.68,1.68.99-.99-1.68-1.68v-.2h2.08l.89.79v2.08c0,.3,0,.5.3.69l2.54,2.54-.86.85-2.47-2.5ZM7.3,13.94l-3.72,3.7c-.08.08-.22.11-.29.12-.11,0-.21-.05-.29-.13l-.66-.7c-.15-.16-.15-.41,0-.57l3.69-3.73c.08-.08.18-.12.29-.12.14,0,.22.05.3.13l.69.74c.15.16.15.41-.01.57Z"/><rect class="cls-2" x="11.07" y="11.24" width="1.35" height="2.84" transform="translate(-5.51 12.02) rotate(-45)"/><rect class="cls-2" x="12.94" y="9.42" width="1.35" height="2.84" transform="translate(-3.68 12.81) rotate(-45)"/></svg>