<svg width="20" height="20" viewBox="0 0 20 20" fill="none" xmlns="http://www.w3.org/2000/svg">
<g clip-path="url(#clip0_54_1569)">
<path d="M7.15579 10.9326C6.60779 10.3846 6.36279 9.78465 6.36279 8.98765C6.36279 8.19065 6.60779 7.59165 7.15579 7.04265C7.70379 6.49465 8.30379 6.24965 9.09979 6.24965C9.89679 6.24965 10.4968 6.49465 11.0448 7.04265C11.5938 7.59165 11.8378 8.19065 11.8378 8.98765C11.8378 9.78365 11.5928 10.3836 11.0448 10.9326C10.4968 11.4806 9.89679 11.7246 9.09979 11.7246C8.30279 11.7246 7.70379 11.4806 7.15579 10.9326ZM14.2988 15.3596C14.4468 15.5116 14.6418 15.5876 14.8378 15.5876C15.0258 15.5876 15.2138 15.5176 15.3598 15.3766C15.6568 15.0886 15.6648 14.6146 15.3768 14.3166L12.5798 11.4226C13.0828 10.7196 13.3378 9.91965 13.3378 8.98765C13.3378 7.79465 12.9348 6.81165 12.1058 5.98265C11.2768 5.15365 10.2928 4.74965 9.09979 4.74965C7.90679 4.74965 6.92379 5.15365 6.09479 5.98265C5.26579 6.81165 4.86279 7.79465 4.86279 8.98765C4.86279 10.1806 5.26579 11.1636 6.09479 11.9936C6.92379 12.8226 7.90679 13.2246 9.09979 13.2246C10.0238 13.2246 10.8198 12.9766 11.5178 12.4826L14.2988 15.3596Z" fill="#CED0D6"/>
<path d="M1.7876 7.375C2.2016 7.375 2.5376 7.039 2.5376 6.625V2.913C2.5376 2.653 2.6536 2.538 2.9126 2.538H6.7376C7.1516 2.538 7.4876 2.202 7.4876 1.788C7.4876 1.374 7.1516 1.038 6.7376 1.038H2.9126C1.8266 1.038 1.0376 1.826 1.0376 2.913V6.625C1.0376 7.039 1.3736 7.375 1.7876 7.375Z" fill="#CED0D6"/>
<path d="M18.2119 12.5127C17.7979 12.5127 17.4619 12.8487 17.4619 13.2627V16.9747C17.4619 17.2377 17.3499 17.3497 17.0869 17.3497H13.1499C12.7349 17.3497 12.3999 17.6857 12.3999 18.0997C12.3999 18.5137 12.7349 18.8497 13.1499 18.8497H17.0869C18.1739 18.8497 18.9619 18.0617 18.9619 16.9747V13.2627C18.9619 12.8487 18.6259 12.5127 18.2119 12.5127Z" fill="#CED0D6"/>
<path d="M13.3184 2.48103H17.0314C17.2914 2.48103 17.4064 2.59703 17.4064 2.85603V6.68103C17.4064 7.09503 17.7424 7.43103 18.1564 7.43103C18.5704 7.43103 18.9064 7.09503 18.9064 6.68103V2.85603C18.9064 1.77003 18.1184 0.98103 17.0314 0.98103H13.3184C12.9044 0.98103 12.5684 1.31703 12.5684 1.73103C12.5684 2.14503 12.9044 2.48103 13.3184 2.48103Z" fill="#CED0D6"/>
<path d="M6.68124 17.4072H2.96924C2.70924 17.4072 2.59424 17.2922 2.59424 17.0322V13.0952C2.59424 12.6802 2.25824 12.3452 1.84424 12.3452C1.43024 12.3452 1.09424 12.6802 1.09424 13.0952V17.0322C1.09424 18.1192 1.88224 18.9072 2.96924 18.9072H6.68124C7.09524 18.9072 7.43124 18.5712 7.43124 18.1572C7.43124 17.7432 7.09524 17.4072 6.68124 17.4072Z" fill="#CED0D6"/>
</g>
<defs>
<clipPath id="clip0_54_1569">
<rect width="18" height="18" fill="white" transform="translate(1 1)"/>
</clipPath>
</defs>
</svg>
