<svg width="20" height="20" viewBox="0 0 20 20" fill="none" xmlns="http://www.w3.org/2000/svg">
<path d="M18.9189 14.7751L16.9727 16.7205L18.9189 18.6658L19.0264 18.7722H17.0156L14.9648 16.7214L17.0156 14.6697H19.0264L18.9189 14.7751ZM2.14648 12.3259C2.28565 12.3508 2.40632 12.4117 2.49805 12.5037C2.62014 12.6263 2.68652 12.7994 2.68652 13.0007V16.8748C2.68652 17.0472 2.74413 17.1542 2.82129 17.2185C2.90041 17.2842 3.00959 17.3132 3.125 17.3132H6.75098C6.95229 17.3134 7.12449 17.3812 7.24707 17.5037C7.33914 17.5957 7.40105 17.7157 7.42578 17.8552L7.4375 18.0007C7.43734 18.2022 7.36968 18.3752 7.24707 18.4978C7.15507 18.5897 7.03481 18.6508 6.89551 18.6755L6.75098 18.6882H3.125C2.09049 18.6882 1.31348 17.9092 1.31348 16.8748V13.0007C1.31348 12.799 1.38123 12.6263 1.50391 12.5037C1.62658 12.381 1.79927 12.3132 2.00098 12.3132L2.14648 12.3259ZM18.9189 10.9197L14.0459 15.7927L14.002 15.7488L13.0811 14.8357L13.0361 14.7917L13.0811 14.7478L17.0166 10.8132H19.0264L18.9189 10.9197ZM16.875 1.31226C17.9094 1.31226 18.6874 2.09036 18.6875 3.12476V6.87476C18.6875 7.07641 18.6198 7.24917 18.4971 7.37183C18.405 7.4638 18.285 7.52579 18.1455 7.55054L18.001 7.56226C17.7993 7.56226 17.6266 7.49442 17.5039 7.37183C17.4118 7.27976 17.3499 7.15986 17.3252 7.02026L17.3135 6.87476V3.12476C17.3134 2.95247 17.2558 2.84626 17.1787 2.78198C17.0996 2.71614 16.9906 2.68726 16.875 2.68726H13.251C13.0494 2.68726 12.8766 2.61935 12.7539 2.49683C12.662 2.40488 12.6009 2.28463 12.5762 2.14526L12.5635 1.99976C12.5636 1.79819 12.6313 1.62537 12.7539 1.50269C12.8766 1.37999 13.0493 1.31226 13.251 1.31226H16.875ZM6.875 1.31226C7.07665 1.31226 7.24942 1.37999 7.37207 1.50269C7.46403 1.59473 7.52505 1.71481 7.5498 1.85425L7.5625 1.99976C7.56245 2.20135 7.49469 2.3742 7.37207 2.49683C7.2494 2.61942 7.07664 2.68726 6.875 2.68726H3.125C2.95271 2.68728 2.84656 2.74395 2.78223 2.82104C2.71633 2.90014 2.68656 3.00925 2.68652 3.12476V6.75073C2.68635 6.9519 2.62021 7.12517 2.49805 7.2478C2.40633 7.33977 2.28563 7.40066 2.14648 7.42554L2.00098 7.43823C1.79946 7.43823 1.62654 7.37035 1.50391 7.2478C1.412 7.15585 1.35101 7.03551 1.32617 6.89624L1.31348 6.75073V3.12476C1.3136 2.09045 2.09057 1.31232 3.125 1.31226H6.875Z" fill="#CED0D6"/>
<path d="M10.6252 4.93774C12.7308 4.93774 14.4377 6.64466 14.4377 8.75024C14.4376 10.8557 12.7307 12.5627 10.6252 12.5627C9.95993 12.5627 9.33465 12.3916 8.79026 12.092L6.69163 14.1917C6.44754 14.4356 6.05188 14.4357 5.80784 14.1917C5.56414 13.9476 5.56397 13.5518 5.80784 13.3079L7.80198 11.3127C7.18724 10.6359 6.81278 9.73667 6.81272 8.75024C6.81272 6.64466 8.51964 4.93774 10.6252 4.93774ZM10.6252 6.25024C9.24451 6.25024 8.12522 7.36953 8.12522 8.75024C8.12535 10.1308 9.24459 11.2502 10.6252 11.2502C12.0059 11.2502 13.1251 10.1308 13.1252 8.75024C13.1252 7.36953 12.0059 6.25024 10.6252 6.25024Z" fill="#CED0D6"/>
</svg>
