<svg width="20" height="20" viewBox="0 0 20 20" fill="none" xmlns="http://www.w3.org/2000/svg">
<path d="M6.53809 12.5762L9.74609 15.7158L9.78223 15.752L9.74609 15.7881L6.55762 18.9082L6.52148 18.9424L6.48633 18.9072L5.6123 18.0137L5.57812 17.9775L5.61328 17.9424L7.18359 16.4053H1.2002V15.0557H7.14062L5.59375 13.542L5.55859 13.5068L5.59277 13.4707L6.4668 12.5771L6.50195 12.542L6.53809 12.5762ZM18.9102 14.7666L16.9561 16.7207L18.9102 18.6748L18.9961 18.7598H17.0215L14.9824 16.7217L17.0215 14.6816H18.9961L18.9102 14.7666ZM13.7998 18.7549H11.3545V17.4053H13.7998V18.7549ZM18.9102 10.9102L14.0459 15.7744L14.0107 15.7393L13.0898 14.8262L13.0537 14.791L13.0898 14.7559L17.0215 10.8252H18.9961L18.9102 10.9102ZM10.1475 2.45605C10.8657 2.51584 11.4553 3.00748 11.6582 3.66309H15.9395C16.9114 3.66309 17.7061 4.44447 17.7061 5.40527V9.5498H16.3564V5.40527C16.3564 5.19161 16.1719 5.0127 15.9395 5.0127H13.8066V6.78516H6.17969V5.0127H4.06543C3.83313 5.0129 3.64844 5.19179 3.64844 5.40527V10.9102H2.29883V5.40527C2.29883 4.44463 3.09117 3.6633 4.06543 3.66309H8.34082C8.55752 2.96298 9.21591 2.4502 10 2.4502L10.1475 2.45605ZM10 3.46875C9.6592 3.46875 9.37622 3.70498 9.31055 4.01758L9.2959 4.15625C9.2959 4.53379 9.61026 4.84277 10 4.84277C10.3408 4.84258 10.6232 4.60594 10.6885 4.29395L10.7031 4.15625C10.7031 3.8248 10.4626 3.54764 10.1416 3.4834L10 3.46875Z" fill="#CED0D6"/>
</svg>
