<svg width="20" height="20" viewBox="0 0 20 20" fill="none" xmlns="http://www.w3.org/2000/svg">
<path d="M10.1485 3.46989C9.73947 3.46989 9.40747 3.13789 9.40747 2.72889C9.40747 2.31989 9.73947 1.98889 10.1485 1.98889C10.5575 1.98889 10.8895 2.31989 10.8895 2.72889C10.8895 3.13789 10.5575 3.46989 10.1485 3.46989ZM16.3675 2.17189H12.2185C11.9715 1.25589 11.1415 0.576891 10.1485 0.576891C9.15547 0.576891 8.32547 1.25589 8.07847 2.17189H3.94447C2.90147 2.17189 2.05347 3.00989 2.05347 4.03989V9.74689H3.55347V4.03989C3.55347 3.83689 3.72947 3.67189 3.94447 3.67189H6.70947V5.26389H13.5845V3.67189H16.3675C16.5835 3.67189 16.7585 3.83689 16.7585 4.03989V16.1819C16.7585 16.3839 16.5835 16.5489 16.3675 16.5489H11.6235V18.0489H16.3675C17.4105 18.0489 18.2585 17.2109 18.2585 16.1819V4.03989C18.2585 3.00989 17.4105 2.17189 16.3675 2.17189Z" fill="#CED0D6"/>
<path d="M5.51376 12.583L7.05575 14.092H0.999756V15.592H7.09975L5.53376 17.124L6.58276 18.196L9.98975 14.863L6.56276 11.511L5.51376 12.583Z" fill="#CED0D6"/>
</svg>
