<svg width="20" height="20" viewBox="0 0 20 20" fill="none" xmlns="http://www.w3.org/2000/svg">
<g clip-path="url(#clip0_54_1648)">
<path d="M17.5909 14.1416L10.7629 17.1836V9.46262L17.5909 6.49363V14.1416ZM9.23891 17.1836L2.40991 14.1416V6.49363L9.23891 9.46262V17.1836ZM10.0009 8.15862L3.52591 5.34262L6.11791 4.19563L12.5659 7.04263L10.0009 8.15862ZM9.98991 2.48063L16.4729 5.34362L14.4359 6.22962L7.97091 3.37462L9.98991 2.48063ZM19.0909 5.35962V5.34962C19.0909 5.34062 19.0849 5.33362 19.0849 5.32562C19.0809 5.22162 19.0549 5.12362 19.0109 5.03062C18.9949 4.99862 18.9749 4.97262 18.9549 4.94362C18.9119 4.87762 18.8609 4.82163 18.7979 4.77163C18.7799 4.75763 18.7719 4.73463 18.7519 4.72263C18.7369 4.71263 18.7189 4.71362 18.7039 4.70563C18.6819 4.69363 18.6669 4.67362 18.6439 4.66262L10.2919 0.974625C10.0999 0.890625 9.87891 0.890625 9.68591 0.975624L1.35691 4.66363C1.33291 4.67363 1.31891 4.69363 1.29691 4.70563C1.28191 4.71463 1.26391 4.71263 1.24891 4.72263C1.22991 4.73463 1.22191 4.75763 1.20391 4.77163C1.13991 4.82163 1.08791 4.87863 1.04491 4.94463C1.02591 4.97363 1.00591 4.99862 0.990911 5.03062C0.947911 5.12162 0.921912 5.21863 0.917912 5.32063C0.916912 5.33062 0.909912 5.33962 0.909912 5.34962V14.6286C0.909912 14.9246 1.08491 15.1936 1.35491 15.3146L9.68391 19.0246C9.70991 19.0356 9.73791 19.0326 9.76391 19.0416C9.82091 19.0616 9.87891 19.0726 9.93891 19.0786C9.95591 19.0796 9.97191 19.0886 9.98891 19.0886C9.99291 19.0886 9.99691 19.0876 10.0009 19.0876C10.0049 19.0876 10.0089 19.0886 10.0129 19.0886C10.0299 19.0886 10.0459 19.0796 10.0629 19.0786C10.1229 19.0726 10.1809 19.0616 10.2379 19.0416C10.2639 19.0326 10.2919 19.0356 10.3179 19.0246L18.6469 15.3146C18.9169 15.1936 19.0909 14.9246 19.0909 14.6286V5.36263C19.0909 5.36162 19.0909 5.36062 19.0909 5.35962Z" fill="#CED0D6"/>
</g>
<defs>
<clipPath id="clip0_54_1648">
<rect width="20" height="20" fill="white"/>
</clipPath>
</defs>
</svg>
