<svg width="20" height="20" viewBox="0 0 20 20" fill="none" xmlns="http://www.w3.org/2000/svg">
<path d="M9.78223 1.25063C9.93926 1.19949 10.1099 1.20932 10.2617 1.27504L18.3818 4.86098L18.4189 4.88539L18.4355 4.89809L18.4375 4.89906L18.4434 4.90004L18.4785 4.91371L18.5107 4.94594C18.514 4.95032 18.5157 4.95333 18.5176 4.9557L18.5195 4.95766L18.5986 5.02992L18.6641 5.11391L18.7109 5.1891L18.7588 5.31801L18.7773 5.44887C18.7773 5.44866 18.7776 5.44894 18.7783 5.45082C18.7789 5.45258 18.7802 5.45654 18.7812 5.46059C18.7824 5.46499 18.7832 5.47112 18.7832 5.47816V9.67445H17.4336V6.50648L10.6865 9.44106V17.0651L12.5498 16.236V17.7145L12.5205 17.7282L10.2871 18.7243C10.2439 18.7429 10.198 18.7575 10.1523 18.7672L10.0117 18.7819C10.006 18.7818 10.0011 18.7801 9.99707 18.7789L9.98828 18.7819C9.89522 18.7818 9.80241 18.7615 9.71582 18.7243L1.61719 15.1168C1.40509 15.0213 1.25733 14.824 1.22363 14.5983L1.2168 14.4996V5.47816C1.21682 5.46444 1.22116 5.45298 1.22266 5.44887C1.22324 5.44725 1.22339 5.44565 1.22363 5.44496C1.2283 5.35587 1.25165 5.27232 1.28809 5.19398L1.33789 5.11293C1.37639 5.05258 1.4251 5.00249 1.48047 4.95766L1.48145 4.95668L1.49023 4.94594C1.49512 4.9394 1.50475 4.92612 1.51855 4.91566L1.52344 4.91273L1.55859 4.90004C1.56128 4.89947 1.5632 4.89843 1.56445 4.89809C1.56833 4.89522 1.57324 4.89195 1.58105 4.88539C1.58958 4.87825 1.60192 4.8682 1.61816 4.86098L9.71582 1.27602L9.78223 1.25063ZM10.0117 18.775C10.0134 18.7745 10.0155 18.7753 10.0166 18.775L10.0186 18.7741C10.0175 18.7743 10.0144 18.7739 10.0117 18.775ZM18.9102 14.7663L16.9561 16.7204L18.9102 18.6745L18.9961 18.7594H17.0205L14.9824 16.7213L17.0205 14.6813H18.9961L18.9102 14.7663ZM2.56641 14.0612L9.31348 17.0651V9.44106L2.56641 6.50648V14.0612ZM18.9092 10.9098L14.0449 15.7741L14.0098 15.7389L13.0898 14.8258L13.0537 14.7907L13.0898 14.7555L17.0215 10.8248H18.9951L18.9092 10.9098ZM3.57129 5.47231L10 8.2682L12.6289 7.12465L6.22461 4.2975L3.57129 5.47231ZM7.89355 3.55824L14.3125 6.3932L16.4258 5.47328L9.99023 2.63148L7.89355 3.55824ZM18.5615 5.06508C18.5837 5.08897 18.604 5.114 18.6221 5.14125L18.5615 5.0641C18.5394 5.04026 18.5149 5.01778 18.4883 4.99672L18.5615 5.06508Z" fill="#CED0D6"/>
</svg>
