<svg width="20" height="20" viewBox="0 0 20 20" fill="none" xmlns="http://www.w3.org/2000/svg">
<path d="M13.3466 5.49699C13.3806 5.49699 13.4146 5.50399 13.4486 5.51799C13.5256 5.54599 13.5826 5.58799 13.6216 5.64299C13.6596 5.69899 13.6656 5.76199 13.6386 5.83299L11.0086 14.659C10.9316 14.927 10.7566 15.125 10.4816 15.252C10.3246 15.324 10.1636 15.36 9.99862 15.36C9.87462 15.36 9.74862 15.34 9.62062 15.299C9.32062 15.21 9.10862 15.035 8.98362 14.773C8.85962 14.512 8.86162 14.252 8.99162 13.992L13.1006 5.64799C13.1336 5.58699 13.1836 5.54299 13.2496 5.51599C13.2816 5.50299 13.3146 5.49699 13.3466 5.49699Z" fill="#CED0D6"/>
<path d="M11.0094 6.28938L11.6314 5.02638L11.6424 5.00338L11.6554 4.98038C11.6804 4.93338 11.7244 4.90138 11.7534 4.85738C11.1774 4.79238 10.5944 4.74738 10.0004 4.74738C6.3374 4.74738 2.9474 6.01838 0.931396 8.14838L2.0204 9.17938C3.7594 7.34338 6.7424 6.24738 10.0004 6.24738C10.3404 6.24738 10.6764 6.26538 11.0094 6.28938Z" fill="#CED0D6"/>
<path d="M15.2586 5.6952C15.2646 5.8832 15.2486 6.0732 15.1866 6.2602L14.9146 7.1752C16.1306 7.6712 17.1886 8.3432 17.9796 9.1792L19.0696 8.1482C18.0846 7.1092 16.7696 6.2782 15.2586 5.6952Z" fill="#CED0D6"/>
<path d="M9.54603 9.26139C7.64803 9.36339 5.86203 10.0934 4.47803 11.3584L5.49003 12.4654C6.40503 11.6294 7.53803 11.0754 8.76303 10.8524L9.54603 9.26139Z" fill="#CED0D6"/>
<path d="M13.9917 10.27L13.5527 11.743C13.8917 11.953 14.2127 12.194 14.5097 12.466L15.5217 11.358C15.0547 10.932 14.5387 10.573 13.9917 10.27Z" fill="#CED0D6"/>
</svg>
