<svg width="20" height="20" viewBox="0 0 20 20" fill="none" xmlns="http://www.w3.org/2000/svg">
<path d="M7.75879 3.79999L11.4404 17.3576C11.636 18.0777 11.0909 18.7857 10.3447 18.7814C9.77012 18.7777 9.28966 18.3432 9.22949 17.7717L9.20508 17.5471L9.0498 16.0666V16.0656L8.71875 12.923L8.55273 11.3469V11.3459L8.22559 8.23749L8.06055 6.66913V6.66815L7.75879 3.79999ZM16.9082 16.7189L18.8584 18.6682L18.9443 18.7531H16.9736L14.9395 16.7189L14.9746 16.6838L16.959 14.6984L16.9736 14.6828H18.9443L16.9082 16.7189ZM14.0049 15.7746L13.9697 15.7394L13.0508 14.8293L13.0146 14.7941L13.0508 14.758L16.959 10.8508L16.9736 10.8361H18.9434L14.0049 15.7746ZM7.74805 13.2297C7.11777 13.4883 6.52111 13.8549 5.98633 14.3283L4.86816 13.2101C5.67618 12.4787 6.6003 11.9452 7.57715 11.6105L7.74805 13.2297ZM10.8193 11.2658C11.1566 11.2812 11.5989 11.3289 12.0684 11.4299C12.6924 11.5887 13.3013 11.8242 13.8779 12.1389C13.9175 12.1651 13.956 12.1932 13.9941 12.2209L12.8359 13.3801C12.3297 13.1363 11.7969 12.9657 11.2539 12.8664L10.8193 11.2658ZM5.60742 12.1525C5.3797 12.3025 5.15749 12.4658 4.94238 12.6408L4.62402 12.9123C4.83203 12.7249 5.04795 12.5494 5.26953 12.3869L5.60742 12.1525ZM7.24512 8.45624C5.58257 8.90784 4.00484 9.75686 2.66504 11.007L1.5498 9.89178C3.1586 8.37987 5.06943 7.37512 7.0791 6.87323L7.24512 8.45624ZM9.52832 6.51385C12.2762 6.3836 15.0584 7.1511 17.3945 8.82147L16.2617 9.95428C14.3655 8.66599 12.1544 8.04056 9.95215 8.0744L9.52832 6.51385ZM1.48145 9.42792C1.31823 9.57514 1.15732 9.72793 1 9.88495L1.23828 9.65253L1.48145 9.42792ZM17.4932 8.41327L17.6738 8.54218L17.6729 8.54315C17.6131 8.50005 17.5535 8.45616 17.4932 8.41425L17.2266 8.23358C17.3158 8.29235 17.4052 8.35198 17.4932 8.41327ZM3.2959 8.05975C3.11908 8.17009 2.94395 8.28574 2.77148 8.40546C2.85556 8.34708 2.94025 8.28874 3.02539 8.2326L3.2959 8.05975ZM16.4072 7.73456L16.6836 7.89374C16.5741 7.82909 16.4636 7.76629 16.3525 7.70526C16.3706 7.71518 16.3892 7.72452 16.4072 7.73456ZM15.2734 7.17499C15.2805 7.17806 15.2879 7.18166 15.2949 7.18475C15.1916 7.13969 15.0876 7.09517 14.9834 7.05292L15.2734 7.17499ZM6.45312 6.63983C6.25373 6.69878 6.05532 6.76345 5.8584 6.83221L5.56348 6.93866C5.75899 6.86498 5.95612 6.79549 6.1543 6.73163L6.45312 6.63983ZM14.3965 6.83124L14.6904 6.93866C14.5929 6.9019 14.4947 6.86644 14.3965 6.83221L14.0996 6.7326C14.1987 6.76447 14.298 6.79684 14.3965 6.83124ZM11.3643 6.16718L11.4482 6.17694C11.3774 6.1697 11.3063 6.16348 11.2354 6.15741C11.2783 6.16107 11.3214 6.16308 11.3643 6.16718Z" fill="#CED0D6"/>
</svg>
