<svg width="20" height="20" viewBox="0 0 20 20" fill="none" xmlns="http://www.w3.org/2000/svg">
<path d="M8.01082 14.2686H8.00382C7.72682 14.2656 7.47382 14.1116 7.34582 13.8656L5.73782 10.7826H2.59082C2.17682 10.7826 1.84082 10.4466 1.84082 10.0326C1.84082 9.61862 2.17682 9.28262 2.59082 9.28262H6.19282C6.47182 9.28262 6.72782 9.43762 6.85782 9.68562L8.02482 11.9236L11.1818 6.12362C11.3118 5.88562 11.5598 5.73562 11.8298 5.73162C12.1068 5.71662 12.3528 5.87062 12.4898 6.10462L14.3348 9.28262H17.4098C17.8238 9.28262 18.1598 9.61862 18.1598 10.0326C18.1598 10.4466 17.8238 10.7826 17.4098 10.7826H13.9038C13.6358 10.7826 13.3888 10.6406 13.2548 10.4096L11.8628 8.01162L8.66982 13.8766C8.53782 14.1186 8.28482 14.2686 8.01082 14.2686Z" fill="#CED0D6"/>
</svg>
