<svg width="20" height="20" viewBox="0 0 20 20" fill="none" xmlns="http://www.w3.org/2000/svg">
<path d="M18.9102 14.7666L16.9561 16.7207L18.9102 18.6748L18.9961 18.7598H17.0205L14.9824 16.7217L17.0205 14.6816H18.9961L18.9102 14.7666ZM18.9092 10.9102L14.0449 15.7744L14.0098 15.7393L13.0898 14.8262L13.0537 14.791L13.0898 14.7559L17.0215 10.8252H18.9951L18.9092 10.9102ZM12.0869 4.85742C12.2799 4.88487 12.4885 5.00225 12.5967 5.1875L14.6582 8.73535H15.625C15.9509 8.73548 16.2231 8.96696 16.2861 9.27441L16.2998 9.41016C16.2997 9.73724 16.0681 10.0085 15.7607 10.0713L15.625 10.085H14.2695C14.0606 10.0849 13.863 9.98706 13.7363 9.82422L13.6865 9.75098L12.0322 6.90332L8.41699 13.5449C8.29939 13.7623 8.07106 13.8975 7.82422 13.8975H7.81836C7.56944 13.8944 7.34041 13.757 7.22559 13.5342L5.42578 10.085H1.89551C1.56886 10.0847 1.29737 9.85452 1.23438 9.54688L1.2207 9.41016C1.22084 9.03791 1.52194 8.73566 1.89551 8.73535H5.83594C6.08701 8.7354 6.3175 8.87627 6.43359 9.09863L7.83594 11.7881L11.4189 5.2041L11.4678 5.12695C11.5925 4.95848 11.7915 4.85522 12.0049 4.85156L12.0869 4.85742Z" fill="#CED0D6"/>
</svg>
