<svg id="Layer_1" data-name="Layer 1" xmlns="http://www.w3.org/2000/svg" viewBox="-20 -20 240 240">
	<title>Dart</title>
	<path fill="#40C4FF" d="M194.42,83.82,154.8,44.2l-.08-.09L123.09,12.49c-3.25-3.25-9.56-6.71-14.87-6.71-4.75,0-9.13,1-11.91,2.66L40.77,36.22l-3.68,2-1.65,3.41-27.86,58c-.27.57-2.64,5.7-2.64,9.41a23.64,23.64,0,0,0,6.7,16.09l31.71,31.71,38.4,38.41H161.5V162.34h32.92ZM98.29,12.06c2.26-1.35,6-2.15,9.93-2.15s9.32,2.85,12,5.49l22.44,22.44c-.24,0-.52,0-.76,0a48.2,48.2,0,0,0-5.59-.31H47.43Zm59.08,179.08H83.46l-37.2-37.2c-4.52-4.53-5.49-6.38-5.49-15.61V44.53l116.6,116.6Z" />
</svg>
