<?xml version="1.0" encoding="UTF-8"?>
<svg xmlns="http://www.w3.org/2000/svg" version="1.1" viewBox="20 28 460 460">
  <defs>
    <style>
      .cls-1 {
        fill: #81DDF9;
        stroke-width: 0px;
      }
    </style>
  </defs>
  <path class="cls-1" d="M231.4,286.9c14.1,0,26-4.9,35.8-14.7,9.8-9.8,14.7-21.7,14.7-35.8s-4.9-26-14.7-35.8c-9.8-9.8-21.7-14.7-35.8-14.7s-26,4.9-35.8,14.7c-9.8,9.8-14.7,21.7-14.7,35.8s4.9,26,14.7,35.8c9.8,9.8,21.7,14.7,35.8,14.7ZM330.9,357.4l-54.3-54.5c-6.7,4.8-13.9,8.3-21.5,10.6-7.6,2.3-15.5,3.5-23.6,3.5-22.4,0-41.5-7.8-57.2-23.5-15.7-15.7-23.5-34.7-23.5-57.2s7.8-41.5,23.5-57.2c15.7-15.7,34.7-23.5,57.2-23.5s41.5,7.8,57.2,23.5c15.7,15.7,23.5,34.7,23.5,57.2s-1.2,16-3.7,23.6c-2.4,7.6-6,14.8-10.8,21.5l54.8,54.6-21.6,21.2ZM113.6,424.9c-10.2,0-18.8-3.5-25.9-10.6-7.1-7.1-10.6-15.7-10.6-25.9v-74.4h30.2v74.4c0,1.6.6,3,1.9,4.3,1.3,1.3,2.7,1.9,4.3,1.9h74.4v30.2h-74.4ZM309,424.9v-30.2h74.4c1.6,0,3-.6,4.3-1.9,1.3-1.3,1.9-2.7,1.9-4.3v-74.4h30.2v74.4c0,10.2-3.5,18.8-10.6,25.9-7.1,7.1-15.7,10.6-25.9,10.6h-74.4ZM77.1,193v-74.4c0-10.2,3.5-18.8,10.6-25.9,7.1-7.1,15.7-10.6,25.9-10.6h74.4v30.2h-74.4c-1.6,0-3,.6-4.3,1.9-1.3,1.3-1.9,2.7-1.9,4.3v74.4s-30.2,0-30.2,0ZM383.4,82.1c10.2,0,18.8,3.5,25.9,10.6,7.1,7.1,10.6,15.7,10.6,25.9v74.4h-30.2v-74.4c0-1.6-.6-3-1.9-4.3-1.3-1.3-2.7-1.9-4.3-1.9h-74.4v-30.2h74.4Z"/>
</svg>
