<svg width="16" height="16" viewBox="7 6 34 34" fill="none" xmlns="http://www.w3.org/2000/svg">
	<path fill-rule="evenodd" clip-rule="evenodd" d="M22.1069 33.9172C28.6544 33.9172 33.9567 28.6177 33.9567 22.0872C33.9567 15.5566 28.6544 10.2571 22.1069 10.2571C15.5595 10.2571 10.2571 15.5566 10.2571 22.0872C10.2571 28.6177 15.5595 33.9172 22.1069 33.9172ZM22.1069 36.1743C29.8979 36.1743 36.2138 29.8673 36.2138 22.0872C36.2138 14.307 29.8979 8 22.1069 8C14.3159 8 8 14.307 8 22.0872C8 29.8673 14.3159 36.1743 22.1069 36.1743ZM31.7573 34.552L36.627 39.4284C37.3977 40.2002 38.6473 40.2002 39.418 39.4284C40.1888 38.6566 40.1888 37.4052 39.418 36.6334L34.5507 31.7593C33.7414 32.8039 32.8022 33.7429 31.7573 34.552ZM20.6595 27.721L18.4038 25.467L18.404 25.4668L18.4036 25.4664L20.6607 23.2124L20.6608 23.2125L22.353 21.522H26.8658L22.9174 25.4658L22.918 25.4664L22.9168 25.4676L26.8658 29.4109H22.353L20.6595 27.7212L20.6605 27.7202L20.6604 27.7201L20.6595 27.721ZM22.353 14.7617H26.8658L17.2753 24.3402L15.0182 22.0863L22.353 14.7617Z" fill="#13B9FD"/>
</svg>
